# AST/ASF file generated using VICON BodyLanguage
# -----------------------------------------------
:version 1.10
:name VICON
:units
  mass 1.0
  length 0.45
  angle deg
:documentation
   .ast/.asf automatically generated from VICON data using
   VICON BodyBuilder and BodyLanguage model FoxedUp or BRILLIANT.MOD
:root
   order TX TY TZ RX RY RZ
   axis XYZ
   position 0 0 0  
   orientation 0 0 0 
:bonedata
  begin
     id 1 
     name lhipjoint
     direction 0.707368 -0.647095 0.284426 
     length 2.60678 
     axis 0 0 0  XYZ
  end
  begin
     id 2 
     name lfemur
     direction 0.34202 -0.939693 0  
     length 6.63812  
     axis 0 0 20  XYZ
    dof rx ry rz
    limits (-160.0 20.0)
           (-70.0 70.0)
           (-60.0 70.0)
  end
  begin
     id 3 
     name ltibia
     direction 0.34202 -0.939693 0   
     length 7.51178   
     axis 0 0 20   XYZ
    dof rx
    limits (-10.0 170.0)
  end
  begin
     id 4 
     name lfoot
     direction 0.121251 -0.333133 0.935051   
     length 1.83716   
     axis -90 7.62852e-016 20   XYZ
    dof rx rz
    limits (-45.0 90.0)
           (-70.0 20.0)
  end
  begin
     id 5 
     name ltoes
     direction 1.53611e-011 -4.21962e-011 1   
     length 0.916133   
     axis -90 7.62852e-016 20   XYZ
    dof rx
    limits (-90.0 20.0)
  end
  begin
     id 6 
     name rhipjoint
     direction -0.692419 -0.660507 0.290321   
     length 2.55385  
     axis 0 0 0  XYZ 
  end
  begin
     id 7 
     name rfemur
     direction -0.34202 -0.939693 0   
     length 7.29079   
     axis 0 0 -20   XYZ
    dof rx ry rz
    limits (-160.0 20.0)
           (-70.0 70.0)
           (-70.0 60.0)
  end
  begin
     id 8 
     name rtibia
     direction -0.34202 -0.939693 0   
     length 7.47143   
     axis 0 0 -20   XYZ
    dof rx
    limits (-10.0 170.0)
 end
 begin
     id 9 
     name rfoot
     direction -0.119907 -0.329441 0.936532   
     length 1.79439  
     axis -90 -7.62852e-016 -20   XYZ
    dof rx rz
    limits (-45.0 90.0)
           (-20.0 70.0)
  end
  begin
     id 10 
     name rtoes
     direction -1.53571e-011 -4.21961e-011 1   
     length 0.896039   
     axis -90 -7.62852e-016 -20   XYZ
    dof rx
    limits (-90.0 20.0)
  end
  begin
     id 11 
     name lowerback
     direction 0.0367721 0.992912 -0.113016   
     length 1.73542   
     axis 0 0 0   XYZ
    dof rx ry rz
    limits (-20.0 45.0)
           (-30.0 30.0)
           (-30.0 30.0)
  end
  begin
     id 12 
     name upperback
     direction -0.000314626 0.990678 0.136227   
     length 1.7514   
     axis 0 0 0   XYZ
    dof rx ry rz
    limits (-20.0 45.0)
           (-30.0 30.0)
           (-30.0 30.0)
  end
  begin
     id 13 
     name thorax
     direction -0.0226159 0.981151 0.191917   
     length 1.71471   
     axis 0 0 0   XYZ
    dof rx ry rz
    limits (-20.0 45.0)
           (-30.0 30.0)
           (-30.0 30.0)
  end
  begin
     id 14 
     name lowerneck
     direction 0.0219333 0.998071 0.0580739   
     length 1.65882   
     axis 0 0 0   XYZ
    dof rx ry rz
    limits (-20.0 45.0)
           (-30.0 30.0)
           (-30.0 30.0)
  end
  begin
     id 15 
     name upperneck
     direction 0.0384529 0.980058 -0.194957   
     length 1.6612   
     axis 0 0 0   XYZ
    dof rx ry rz
    limits (-20.0 45.0)
           (-30.0 30.0)
           (-30.0 30.0)
  end
  begin
     id 16
     name head
     direction 0.00592123 0.997421 -0.0715234  
     length 1.68077  
     axis 0 0 0   XYZ
    dof rx ry rz
    limits (-20.0 45.0)
           (-30.0 30.0)
           (-30.0 30.0)
  end
  begin
     id 17 
     name lclavicle
     direction 0.904803 0.417826 0.0821728  
     length 3.42227  
     axis 0 0 0   XYZ
    dof ry rz
    limits (-20.0 10.0)
           (0.0 20.0)
  end
  begin
     id 18 
     name lhumerus
     direction 1 -4.48965e-011 -2.68786e-027   
     length 5.11878   
     axis -180 -30 -90   XYZ
    dof rx ry rz
    limits (-60.0 90.0)
           (-90.0 90.0)
           (-90.0 90.0)
  end
  begin
     id 19
     name lradius
     direction 1 -4.48965e-011 2.61168e-028   
     length 3.59971   
     axis -180 -30 -90   XYZ
    dof rx
    limits (-10.0 170.0)
  end
  begin
     id 20
     name lwrist
     direction 1 -4.48965e-011 1.58672e-027   
     length 1.79985   
     axis -1.65735e-015 90 90   XYZ
    dof ry
    limits (-180.0 0.0)
 end
  begin
     id 21 
     name lhand
     direction 1 -4.48942e-011 3.17344e-027   
     length 0.62877   
     axis -2.02492e-015 90 90   XYZ
    dof rx rz
    limits (-90.0 90.0)
           (-45.0 45.0)
  end
  begin
     id 22 
     name lfingers
     direction 1 -4.49011e-011 6.34687e-027   
     length 0.506931   
     axis -4.04985e-015 90 90   XYZ
    dof rx
    limits (0.0 90.0)
  end
  begin
     id 23
     name lthumb
     direction 0.707107 -6.34982e-011 0.707107   
     length 0.727854   
     axis -90 45 2.85299e-015   XYZ
    dof rx rz
    limits (-45.0 45.0)
           (-45.0 45.0)
  end
  begin
     id 24 
     name rclavicle
     direction -0.945647 0.32488 0.0143075   
     length 3.52737  
     axis 0 0 0   XYZ 
    dof ry rz
    limits (-10.0 20.0)
           (-20.0 0.0)
  end
  begin
     id 25 
     name rhumerus
     direction -1 -4.48962e-011 1.92182e-027  
     length 5.4902   
     axis -180 30 90   XYZ
    dof rx ry rz
    limits (-90.0 60.0)
           (-90.0 90.0)
           (-90.0 90.0)
  end
  begin
     id 26 
     name rradius
     direction -1 -4.48967e-011 -5.97193e-028   
     length 3.20659   
     axis -180 30 90   XYZ
    dof rx
    limits (-10.0 170.0)
  end
  begin
     id 27 
     name rwrist
     direction -1 -4.48964e-011 1.58672e-027   
     length 1.6033   
     axis -1.65735e-015 -90 -90   XYZ
    dof ry
    limits (-180.0 0.0)
  end
  begin
     id 28
     name rhand
     direction -1 -4.49006e-011 3.17344e-027   
     length 0.691885   
     axis -2.02492e-015 -90 -90   XYZ
    dof rx rz
    limits (-90.0 90.0)
           (-45.0 45.0)
  end
  begin
     id 29
     name rfingers
     direction -1 -4.48908e-011 6.34687e-027   
     length 0.557815   
     axis -4.04985e-015 -90 -90   XYZ
    dof rx
    limits (0.0 90.0)
  end
  begin
     id 30
     name rthumb
     direction -0.707107 -6.34999e-011 0.707107   
     length 0.800915   
     axis -90 -45 -2.85299e-015   XYZ
    dof rx rz
    limits (-45.0 45.0)
           (-45.0 45.0)
  end
:hierarchy
  begin
    root lhipjoint rhipjoint lowerback
    lhipjoint lfemur
    lfemur ltibia
    ltibia lfoot
    lfoot ltoes
    rhipjoint rfemur
    rfemur rtibia
    rtibia rfoot
    rfoot rtoes
    lowerback upperback
    upperback thorax
    thorax lowerneck lclavicle rclavicle
    lowerneck upperneck
    upperneck head
    lclavicle lhumerus
    lhumerus lradius
    lradius lwrist
    lwrist lhand lthumb
    lhand lfingers
    rclavicle rhumerus
    rhumerus rradius
    rradius rwrist
    rwrist rhand rthumb
    rhand rfingers
  end

#!OML:ASF I:\Actors\actors\Patient Classification 1\Patient 1\Session 1\Subject1.ASF
:FULLY-SPECIFIED
:DEGREES
58
root 0.598813 17.4477 9.67984 10.9 -1.25073 -9.49004
lowerback -2.58301 0.514364 6.61306
upperback -10.2872 1.02908 2.03113
thorax -9.40658 0.055043 -1.57778
lowerneck -10.7005 -3.20624 -2.93605
upperneck 26.3042 -6.86341 10.4763
head 10.6796 -2.27881 3.41351
rclavicle -2.08724e-014 2.06736e-014
rhumerus -46.3379 -14.3629 -78.1857
rradius 26.2317
rwrist 29.7253
rhand 15.1173 -37.6463
rfingers 7.12502
rthumb 39.9621 -62.8838
lclavicle -2.08724e-014 2.06736e-014
lhumerus -51.8698 13.9537 77.8213
lradius 27.8445
lwrist 5.17612
lhand -22.857 5.08385
lfingers 7.12502
lthumb 3.58123 35.0335
rfemur -4.29401 25.4687 26.3747
rtibia 1.89731
rfoot -12.1682 -25.4826
rtoes 5.06791
lfemur 5.57543 -44.5883 -11.6141
ltibia -4.97099
lfoot -21.2095 52.6252
ltoes 8.63691
59
root 0.598845 17.4477 9.68035 10.9006 -1.24723 -9.51487
lowerback -2.57958 0.535698 6.64839
upperback -10.288 1.05829 2.01719
thorax -9.4072 0.0657927 -1.61378
lowerneck -10.7144 -3.2296 -2.90277
upperneck 26.3307 -6.8989 10.446
head 10.6931 -2.29384 3.39259
rclavicle -5.66536e-015 2.62396e-014
rhumerus -46.3899 -14.4352 -78.1376
rradius 26.2535
rwrist 29.7091
rhand 15.1528 -37.6326
rfingers 7.12502
rthumb 39.9955 -62.86
lclavicle -5.66536e-015 2.62396e-014
lhumerus -51.8507 13.8569 77.9021
lradius 27.8755
lwrist 5.30198
lhand -22.8524 5.14814
lfingers 7.12502
lthumb 3.58564 35.0977
rfemur -4.29085 25.4461 26.4059
rtibia 1.89241
rfoot -12.138 -25.4759
rtoes 4.84192
lfemur 5.56034 -44.4874 -11.553
ltibia -4.99932
lfoot -21.1397 52.5282
ltoes 8.61047
60
root 0.598716 17.4478 9.68044 10.903 -1.24545 -9.52827
lowerback -2.56912 0.549891 6.65808
upperback -10.2916 1.07838 2.00961
thorax -9.41583 0.0742329 -1.62836
lowerneck -10.7157 -3.24563 -2.93161
upperneck 26.3549 -6.92938 10.4852
head 10.7076 -2.30547 3.40879
rclavicle 2.18663e-015 -2.38542e-015
rhumerus -46.4385 -14.5369 -78.0575
rradius 26.2492
rwrist 29.8034
rhand 15.1779 -37.5739
rfingers 7.12502
rthumb 40.0191 -62.7942
lclavicle 2.18663e-015 -2.38542e-015
lhumerus -51.8533 13.8489 77.8756
lradius 27.7988
lwrist 5.26514
lhand -22.6311 4.41689
lfingers 7.12502
lthumb 3.79938 34.3628
rfemur -4.29474 25.4801 26.4222
rtibia 1.8804
rfoot -12.0874 -25.5114
rtoes 4.74202
lfemur 5.5494 -44.4571 -11.5191
ltibia -4.99996
lfoot -21.2458 52.4555
ltoes 8.84521
61
root 0.598979 17.4475 9.68094 10.9065 -1.24552 -9.51129
lowerback -2.56797 0.556121 6.63679
upperback -10.294 1.08585 2.00143
thorax -9.41831 0.0791862 -1.6257
lowerneck -10.7301 -3.25502 -2.99475
upperneck 26.3857 -6.95036 10.5487
head 10.7285 -2.31283 3.44119
rclavicle 2.87244e-014 -4.73108e-014
rhumerus -46.4717 -14.6503 -77.9621
rradius 26.2225
rwrist 29.9403
rhand 15.141 -37.5193
rfingers 7.12502
rthumb 39.9843 -62.7501
lclavicle 2.87244e-014 -4.73108e-014
lhumerus -51.8546 13.9044 77.7938
lradius 27.6868
lwrist 5.11213
lhand -22.4242 3.67666
lfingers 7.12502
lthumb 3.99912 33.6189
rfemur -4.30531 25.4693 26.3964
rtibia 1.88158
rfoot -12.0709 -25.5079
rtoes 4.73618
lfemur 5.57628 -44.5378 -11.5656
ltibia -4.9975
lfoot -21.385 52.5165
ltoes 8.98616
62
root 0.599603 17.4469 9.68122 10.9251 -1.24028 -9.51129
lowerback -2.57681 0.558164 6.64333
upperback -10.302 1.08851 2.00222
thorax -9.42198 0.0797608 -1.62847
lowerneck -10.7297 -3.25947 -3.00392
upperneck 26.4272 -6.95072 10.5179
head 10.7428 -2.31616 3.43258
rclavicle 1.90833e-014 7.95139e-015
rhumerus -46.4838 -14.675 -77.9244
rradius 26.2069
rwrist 29.9541
rhand 15.047 -37.5342
rfingers 7.12502
rthumb 39.8959 -62.7915
lclavicle 1.90833e-014 7.95139e-015
lhumerus -51.8754 13.8419 77.8541
lradius 27.7503
lwrist 5.2101
lhand -22.3848 3.59825
lfingers 7.12502
lthumb 4.03721 33.5397
rfemur -4.32791 25.4551 26.3891
rtibia 1.89234
rfoot -12.0525 -25.5113
rtoes 4.67334
lfemur 5.55592 -44.5535 -11.5538
ltibia -5.00048
lfoot -21.387 52.5499
ltoes 8.87699
63
root 0.600129 17.4463 9.68076 10.9464 -1.23364 -9.53797
lowerback -2.57146 0.563997 6.68547
upperback -10.3074 1.09876 2.00665
thorax -9.43092 0.0811665 -1.6476
lowerneck -10.7007 -3.26945 -3.01888
upperneck 26.4341 -6.96021 10.5095
head 10.7405 -2.32371 3.43139
rclavicle 8.94531e-016 -2.10712e-014
rhumerus -46.4782 -14.6419 -77.9386
rradius 26.2117
rwrist 29.8635
rhand 14.9907 -37.5917
rfingers 7.12502
rthumb 39.8429 -62.8649
lclavicle 8.94531e-016 -2.10712e-014
lhumerus -51.8856 13.7938 77.9063
lradius 27.8018
lwrist 5.24099
lhand -22.2977 3.62091
lfingers 7.12502
lthumb 4.12128 33.5608
rfemur -4.35332 25.5189 26.4135
rtibia 1.9068
rfoot -12.0831 -25.5587
rtoes 4.7659
lfemur 5.48231 -44.4721 -11.4592
ltibia -5.01161
lfoot -21.2199 52.5134
ltoes 8.66099
64
root 0.600229 17.4466 9.68031 10.9546 -1.2342 -9.57717
lowerback -2.5665 0.568118 6.73333
upperback -10.2978 1.10621 2.01484
thorax -9.42292 0.0816416 -1.66587
lowerneck -10.6864 -3.28339 -3.06279
upperneck 26.4095 -6.98423 10.567
head 10.7344 -2.33391 3.45657
rclavicle 8.34896e-015 -8.74653e-015
rhumerus -46.4571 -14.5876 -77.98
rradius 26.2229
rwrist 29.75
rhand 14.9791 -37.6029
rfingers 7.12502
rthumb 39.832 -62.8794
lclavicle 8.34896e-015 -8.74653e-015
lhumerus -51.8688 13.8168 77.9166
lradius 27.8044
lwrist 5.20075
lhand -22.2249 3.70663
lfingers 7.12502
lthumb 4.1916 33.6451
rfemur -4.36104 25.5704 26.4497
rtibia 1.89613
rfoot -12.1243 -25.5818
rtoes 4.92187
lfemur 5.46286 -44.4749 -11.3925
ltibia -5.03022
lfoot -21.1252 52.5399
ltoes 8.54645
65
root 0.600361 17.4472 9.68035 10.9538 -1.23759 -9.58402
lowerback -2.57316 0.560428 6.7347
upperback -10.283 1.09519 2.02612
thorax -9.40332 0.0774782 -1.65409
lowerneck -10.6945 -3.28992 -3.10732
upperneck 26.402 -6.9958 10.6114
head 10.7376 -2.33873 3.47891
rclavicle -1.12313e-014 -7.95139e-016
rhumerus -46.4369 -14.5127 -78.0215
rradius 26.2445
rwrist 29.6536
rhand 14.9905 -37.6021
rfingers 7.12502
rthumb 39.8427 -62.8754
lclavicle -1.12313e-014 -7.95139e-016
lhumerus -51.851 13.8707 77.9159
lradius 27.7857
lwrist 5.17919
lhand -22.2321 3.70796
lfingers 7.12502
lthumb 4.18462 33.6466
rfemur -4.35374 25.5414 26.455
rtibia 1.87007
rfoot -12.0924 -25.5626
rtoes 4.75775
lfemur 5.47697 -44.4983 -11.3975
ltibia -5.03434
lfoot -21.0866 52.5684
ltoes 8.4814
66
root 0.600912 17.4473 9.68087 10.9534 -1.24468 -9.56133
lowerback -2.57698 0.547589 6.70473
upperback -10.2773 1.07626 2.02615
thorax -9.39589 0.0709193 -1.63649
lowerneck -10.7005 -3.28815 -3.09005
upperneck 26.4065 -6.99434 10.5989
head 10.7392 -2.33752 3.4715
rclavicle -2.48481e-015 -1.03368e-014
rhumerus -46.4234 -14.4771 -78.046
rradius 26.2457
rwrist 29.6023
rhand 14.999 -37.6172
rfingers 7.12502
rthumb 39.8507 -62.8881
lclavicle -2.48481e-015 -1.03368e-014
lhumerus -51.8443 13.9273 77.8877
lradius 27.7428
lwrist 5.14814
lhand -22.2948 3.69241
lfingers 7.12502
lthumb 4.12412 33.6322
rfemur -4.34147 25.5017 26.4285
rtibia 1.85371
rfoot -12.1052 -25.5229
rtoes 4.72563
lfemur 5.46855 -44.4316 -11.4217
ltibia -5.02789
lfoot -21.0213 52.52
ltoes 8.46007
67
root 0.601354 17.4473 9.68132 10.9639 -1.26647 -9.54413
lowerback -2.57134 0.535589 6.67683
upperback -10.2856 1.05937 2.01614
thorax -9.40954 0.0637916 -1.63077
lowerneck -10.7046 -3.27662 -3.03597
upperneck 26.4279 -6.99046 10.5917
head 10.7458 -2.33049 3.46047
rclavicle -1.85864e-014 2.78299e-014
rhumerus -46.4373 -14.5011 -78.0582
rradius 26.2492
rwrist 29.6177
rhand 14.9956 -37.6106
rfingers 7.12502
rthumb 39.8475 -62.8824
lclavicle -1.85864e-014 2.78299e-014
lhumerus -51.8705 13.9801 77.8257
lradius 27.7141
lwrist 5.10962
lhand -22.358 3.7195
lfingers 7.12502
lthumb 4.06311 33.6605
rfemur -4.34573 25.4934 26.4006
rtibia 1.84919
rfoot -12.1243 -25.4947
rtoes 5.00136
lfemur 5.46002 -44.4008 -11.4384
ltibia -5.01884
lfoot -21.187 52.4601
ltoes 8.74664
68
root 0.601769 17.4475 9.68154 10.9852 -1.30408 -9.5115
lowerback -2.58549 0.528932 6.6331
upperback -10.2908 1.04667 1.99924
thorax -9.40737 0.0601927 -1.62373
lowerneck -10.7078 -3.26534 -3.01626
upperneck 26.463 -6.99342 10.6287
head 10.7609 -2.32468 3.47125
rclavicle 1.21259e-014 7.95139e-016
rhumerus -46.4683 -14.4505 -78.1295
rradius 26.3284
rwrist 29.5402
rhand 15.0148 -37.6562
rfingers 7.12502
rthumb 39.8656 -62.9226
lclavicle 1.21259e-014 7.95139e-016
lhumerus -51.9057 13.9875 77.7897
lradius 27.7155
lwrist 5.14751
lhand -22.3908 3.76005
lfingers 7.12502
lthumb 4.03139 33.7017
rfemur -4.37278 25.502 26.3492
rtibia 1.84741
rfoot -12.0741 -25.5091
rtoes 4.97154
lfemur 5.46627 -44.4426 -11.4941
ltibia -5.01768
lfoot -21.2601 52.5137
ltoes 8.84038
69
root 0.602184 17.4478 9.68164 11.0071 -1.32989 -9.5054
lowerback -2.62394 0.533636 6.63465
upperback -10.283 1.04774 1.98266
thorax -9.37527 0.0607302 -1.64209
lowerneck -10.6824 -3.28113 -3.00783
upperneck 26.4646 -7.02254 10.6424
head 10.7593 -2.3366 3.47131
rclavicle -2.20651e-014 2.0276e-014
rhumerus -46.4683 -14.4126 -78.1995
rradius 26.3827
rwrist 29.4478
rhand 15.0402 -37.6957
rfingers 7.12502
rthumb 39.8895 -62.9549
lclavicle -2.20651e-014 2.0276e-014
lhumerus -51.924 13.964 77.7732
lradius 27.7139
lwrist 5.18954
lhand -22.3714 3.73713
lfingers 7.12502
lthumb 4.05016 33.6784
rfemur -4.3942 25.5305 26.3291
rtibia 1.83018
rfoot -12.0373 -25.5473
rtoes 4.79391
lfemur 5.47869 -44.5408 -11.5249
ltibia -5.01954
lfoot -21.3459 52.6368
ltoes 8.95108
70
root 0.602386 17.4482 9.68124 11.0197 -1.33106 -9.53307
lowerback -2.63148 0.531913 6.67336
upperback -10.2793 1.04536 1.98002
thorax -9.36706 0.056455 -1.66616
lowerneck -10.6633 -3.30905 -2.98381
upperneck 26.4794 -7.0606 10.6076
head 10.7621 -2.35593 3.44992
rclavicle 6.36111e-015 -1.74931e-014
rhumerus -46.4606 -14.561 -78.1266
rradius 26.3496
rwrist 29.5921
rhand 15.049 -37.6041
rfingers 7.12502
rthumb 39.8977 -62.8609
lclavicle 6.36111e-015 -1.74931e-014
lhumerus -51.9538 13.9317 77.7703
lradius 27.7193
lwrist 5.19936
lhand -22.3565 3.69056
lfingers 7.12502
lthumb 4.06455 33.6315
rfemur -4.4051 25.5594 26.3563
rtibia 1.83007
rfoot -12.0411 -25.5558
rtoes 4.82824
lfemur 5.46649 -44.5984 -11.4822
ltibia -5.01393
lfoot -21.5336 52.6523
ltoes 9.23889
71
root 0.602621 17.4481 9.68113 11.0232 -1.33458 -9.53947
lowerback -2.63311 0.51917 6.6741
upperback -10.2738 1.02837 1.98978
thorax -9.36144 0.0487297 -1.65531
lowerneck -10.6362 -3.30936 -2.91783
upperneck 26.4729 -7.05722 10.5441
head 10.749 -2.35612 3.41552
rclavicle 1.03368e-014 -1.98785e-014
rhumerus -46.4785 -14.6787 -78.049
rradius 26.3644
rwrist 29.7301
rhand 15.0386 -37.5529
rfingers 7.12502
rthumb 39.888 -62.8127
lclavicle 1.03368e-014 -1.98785e-014
lhumerus -51.98 13.9183 77.7812
lradius 27.7203
lwrist 5.2206
lhand -22.349 3.68037
lfingers 7.12502
lthumb 4.07179 33.6212
rfemur -4.42056 25.5096 26.3575
rtibia 1.85108
rfoot -12.0395 -25.4782
rtoes 4.77977
lfemur 5.44577 -44.5781 -11.4579
ltibia -5.00596
lfoot -21.5479 52.6122
ltoes 9.27545
72
root 0.602722 17.4476 9.68146 11.0299 -1.35306 -9.54172
lowerback -2.67755 0.513245 6.66697
upperback -10.2473 1.01534 2.00163
thorax -9.3063 0.045493 -1.63799
lowerneck -10.6016 -3.30326 -2.86782
upperneck 26.4168 -7.04578 10.5184
head 10.7174 -2.35171 3.39757
rclavicle -1.27222e-014 5.96354e-015
rhumerus -46.4492 -14.5846 -78.1218
rradius 26.4222
rwrist 29.6253
rhand 15.0605 -37.6452
rfingers 7.12502
rthumb 39.9086 -62.8988
lclavicle -1.27222e-014 5.96354e-015
lhumerus -51.9641 13.9506 77.7796
lradius 27.7109
lwrist 5.23211
lhand -22.3305 3.7207
lfingers 7.12502
lthumb 4.08963 33.6612
rfemur -4.43495 25.4558 26.3433
rtibia 1.83672
rfoot -12.0329 -25.3907
rtoes 4.79498
lfemur 5.46097 -44.6144 -11.4734
ltibia -5.01229
lfoot -21.5645 52.6772
ltoes 9.20447
